<svg width="879" height="302" viewBox="0 0 879 302" fill="none" xmlns="http://www.w3.org/2000/svg">
<path d="M754.9 301.969C754.6 301.569 754.3 301.169 753.9 300.869C718.3 273.069 681.7 246.769 643.2 223.069C617.5 207.269 591.2 192.769 563.7 180.169C539.5 168.969 514.7 159.469 489 152.369C473.6 148.169 457.9 144.769 442.1 142.569C423.633 139.903 405.1 138.903 386.5 139.569C366.9 140.269 347.6 142.869 328.4 147.169C312.8 150.669 297.5 155.169 282.4 160.369C281.2 160.669 280.3 160.669 279.2 160.169C233.8 139.969 188.4 119.769 143 99.5692C142.7 99.3692 142.3 99.1692 141.6 98.8692C142.4 98.4692 142.9 98.1692 143.5 97.9692C165.033 89.0359 186.567 80.1025 208.1 71.1692C239.967 57.9025 271.8 44.6692 303.6 31.4692C305 30.8692 306.1 30.7692 307.6 31.1692C395.3 55.6692 480.4 87.0692 562.3 126.869C637.2 163.269 708.1 206.069 774.6 256.269C783.3 262.769 791.8 269.569 800.4 276.169C800.9 276.569 801.3 276.969 801.9 277.569C801.2 277.969 800.6 278.369 800 278.669C785.933 286.069 771.833 293.436 757.7 300.769C757.1 301.169 756.6 301.569 756 301.969C755.667 301.969 755.3 301.969 754.9 301.969Z" fill="white"/>
<path d="M878.6 237.469C860.3 247.069 842.4 256.469 824.3 265.969C823.7 265.503 823.1 265.036 822.5 264.569C775.4 228.269 726.3 194.669 675.2 164.069C606.5 122.969 534.9 87.7692 460.2 59.0692C428.7 46.9692 396.8 36.2692 364.7 26.1692C356.9 23.7692 349.2 21.2692 341.5 18.7692C340.9 18.5692 340.4 18.3692 339.5 18.0692C340.3 17.5692 340.9 17.2692 341.5 16.9692C357.1 9.46923 373.4 4.36923 390.6 1.86923C403 0.0692308 415.5 -0.430769 428 0.369231C450.5 1.56923 472.4 6.56923 493.8 13.4692C514.7 20.2692 534.8 28.8692 554.5 38.5692C580.1 51.1692 604.7 65.4692 629 80.4692C711.8 131.769 794.2 183.669 876.3 235.969C877 236.369 877.7 236.869 878.6 237.469Z" fill="white"/>
<path d="M230.8 171.269C223.933 171.536 217.067 171.803 210.2 172.069C192.6 172.603 175 173.136 157.4 173.669C146.6 174.069 135.767 174.436 124.9 174.769C108.033 175.369 91.1667 175.936 74.3 176.469C69.8333 176.669 65.3667 176.803 60.9 176.869C60 176.969 59.1 176.769 58.3 176.569C39.3667 170.436 20.4667 164.303 1.6 158.169C1.2 158.069 0.8 157.869 0 157.569C0.9 157.169 1.5 156.869 2.2 156.569C25.8 146.769 49.4 136.969 73 127.169C84 122.669 95 118.069 106 113.469C107.3 112.969 108.3 112.969 109.5 113.569C149.633 132.503 189.733 151.436 229.8 170.369C230.2 170.569 230.567 170.769 230.9 170.969C230.9 171.103 230.867 171.203 230.8 171.269Z" fill="white"/>
</svg>